<svg width="76" height="76" viewBox="0 0 76 76" fill="none" xmlns="http://www.w3.org/2000/svg">
<circle cx="38" cy="38" r="38" fill="#E4E4E4"/>
<path d="M48.525 31.025V49.525M48.525 49.525V56H24.475V49.525M48.525 49.525H55V31.025C55 28.25 53.15 25.0125 50.375 22.7C47.6 20.3875 43.9 19 43.9 19M24.475 49.525H18V31.025C18 28.25 19.85 25.0125 22.625 22.7C25.4 20.3875 29.1 19 29.1 19M24.475 49.525V31.025M29.1 19H43.9M29.1 19L36.5 31.025M43.9 19L36.5 31.025M36.5 31.025V56" stroke="black" stroke-width="2" stroke-linecap="round" stroke-linejoin="round"/>
</svg>
