<svg width="76" height="76" viewBox="0 0 76 76" fill="none" xmlns="http://www.w3.org/2000/svg">
<circle cx="38" cy="38" r="38" fill="#E4E4E4"/>
<path d="M38.5 20C33.5935 20 28.8879 21.9491 25.4185 25.4185C21.9491 28.8879 20 33.5935 20 38.5C20 43.4065 21.9491 48.1121 25.4185 51.5815C28.8879 55.0509 33.5935 57 38.5 57C43.4065 57 48.1121 55.0509 51.5815 51.5815C55.0509 48.1121 57 43.4065 57 38.5C57 33.5935 55.0509 28.8879 51.5815 25.4185C48.1121 21.9491 43.4065 20 38.5 20ZM34.652 22.7727C37.1817 22.1548 39.8229 22.1548 42.3526 22.7727L38.5 25.0181L34.652 22.775V22.7727ZM31.7753 23.7717L37.3484 27.0207V30.952L30.9451 35.466L27.3376 34.1548L25.8899 28.3458C27.4704 26.3847 29.4852 24.8203 31.7753 23.7717ZM24.1648 30.9751L25.0736 34.6289L22.3819 37.02C22.5784 34.8532 23.1982 32.8112 24.1648 30.9751ZM22.3911 40.1003L26.6161 36.354L30.1912 37.6513L32.6078 45.2594L30.9497 47.7408H25.2077C23.6295 45.4775 22.6596 42.8464 22.3911 40.1003ZM27.1618 50.0533H30.7554L31.9348 53.3C30.1625 52.5119 28.5458 51.4122 27.1618 50.0533ZM34.7376 54.2481L32.8529 49.0543L34.4947 46.5961H42.5122L44.1564 49.0543L42.2717 54.2458C39.7951 54.8371 37.2141 54.8394 34.7376 54.2481ZM45.0767 53.2954L46.2561 50.0533H49.8382C48.4571 51.4093 46.8446 52.5073 45.0767 53.2954ZM51.7923 47.7408H46.0619L44.3969 45.2548L46.7672 37.6536L50.3909 36.3494L54.6089 40.1003C54.3404 42.8464 53.3705 45.4775 51.7923 47.7408ZM54.6204 37.0154L51.9379 34.6312L52.8468 30.9959C53.8041 32.8228 54.4239 34.8578 54.6204 37.0154ZM51.1193 28.362L49.674 34.1502L46.011 35.4683L39.6586 30.9543V27.0231L45.2294 23.7694C47.5234 24.821 49.5408 26.3926 51.1216 28.3597L51.1193 28.362ZM32.4806 37.2189L38.5 32.9662L44.4801 37.2143L42.2786 44.2812H34.7237L32.4806 37.2143V37.2189Z" fill="black"/>
</svg>
