<svg width="76" height="76" viewBox="0 0 76 76" fill="none" xmlns="http://www.w3.org/2000/svg">
<circle cx="38" cy="38" r="38" fill="#E4E4E4"/>
<path d="M38.823 19.5776C38.6723 19.3968 38.4837 19.2514 38.2707 19.1516C38.0576 19.0517 37.8252 19 37.5899 19C37.3546 19 37.1222 19.0517 36.9092 19.1516C36.6961 19.2514 36.5075 19.3968 36.3569 19.5776C33.0141 23.5939 26.3961 28.375 22.5878 30.502C22.3712 30.6233 22.1858 30.7933 22.0459 30.9984C21.9061 31.2036 21.8157 31.4384 21.7818 31.6844L18.7377 53.787H16.6055C16.1797 53.787 15.7713 53.9562 15.4703 54.2575C15.1692 54.5588 15 54.9674 15 55.3935C15 55.8196 15.1692 56.2282 15.4703 56.5295C15.7713 56.8307 16.1797 57 16.6055 57H58.3945C58.8203 57 59.2287 56.8307 59.5298 56.5295C59.8308 56.2282 60 55.8196 60 55.3935C60 54.9674 59.8308 54.5588 59.5298 54.2575C59.2287 53.9562 58.8203 53.787 58.3945 53.787H56.4453L53.4012 31.6844C53.367 31.4381 53.2761 31.2031 53.1357 30.9979C52.9953 30.7927 52.8092 30.623 52.592 30.502C48.7869 28.375 42.1689 23.5939 38.823 19.5776ZM48.0387 53.787C44.2593 48.4308 41.5652 43.2 39.0798 33.6508C38.9899 33.3065 38.7882 33.0018 38.5065 32.7846C38.2247 32.5673 37.8789 32.4499 37.5232 32.4506C37.1675 32.4513 36.8222 32.5702 36.5413 32.7886C36.2605 33.007 36.0601 33.3125 35.9715 33.6572C33.2228 44.3759 29.9765 49.7321 26.9837 53.787H21.9809L24.858 32.9021C28.4865 30.7719 33.9775 26.807 37.5931 23.0124C41.2088 26.807 46.7029 30.7719 50.3315 32.9054L53.2022 53.787H48.0387ZM44.1501 53.787H30.9205C33.1554 50.4872 35.4481 46.2748 37.5321 39.8359C39.4266 45.6676 41.5331 49.8221 44.1469 53.787H44.1501Z" fill="black"/>
</svg>
