<svg width="76" height="76" viewBox="0 0 76 76" fill="none" xmlns="http://www.w3.org/2000/svg">
<circle cx="38" cy="38" r="38" fill="#E4E4E4"/>
<path d="M51.8828 48.24L41.9735 33.1587V25.9493H44.2756V22H30.2192V25.9533H32.5401V33.1627L22.612 48.24C22.2408 48.8016 22.0299 49.452 22.0017 50.1225C21.9735 50.7929 22.129 51.4584 22.4517 52.0486C22.7745 52.6388 23.2525 53.1317 23.8352 53.4752C24.4179 53.8187 25.0836 54.0001 25.7619 54H48.7208C49.4003 53.999 50.0669 53.8164 50.6503 53.4717C51.2337 53.1269 51.7121 52.6327 52.0352 52.0413C52.3582 51.4499 52.5138 50.7831 52.4855 50.1115C52.4573 49.4398 52.2462 48.7882 51.8747 48.2253L51.8841 48.24H51.8828ZM50.663 51.3093C50.4741 51.6535 50.1949 51.941 49.8547 52.1414C49.5146 52.3418 49.1261 52.4477 48.7302 52.448H25.7619C25.3642 52.4486 24.9739 52.3427 24.6321 52.1416C24.2904 51.9405 24.01 51.6517 23.8207 51.3057C23.6314 50.9598 23.5403 50.5696 23.5569 50.1766C23.5736 49.7836 23.6975 49.4024 23.9154 49.0733L23.91 49.0813L34.0847 33.6147V25.9467H40.4006V33.6187L50.5646 49.0853C50.7937 49.42 50.9312 49.8333 50.9312 50.2787C50.9312 50.6587 50.8315 51.016 50.6562 51.3253L50.6616 51.3147L50.663 51.3093Z" fill="black"/>
<path d="M41.4249 38.468H33.0805L25.4585 50.0653C25.419 50.1239 25.3966 50.1921 25.3937 50.2624C25.3909 50.3328 25.4077 50.4025 25.4423 50.464L25.441 50.4627C25.5084 50.5787 25.6324 50.656 25.7752 50.6573H48.7314C48.7993 50.6573 48.8659 50.6394 48.9244 50.6054C48.9829 50.5714 49.0312 50.5226 49.0643 50.464L49.0657 50.4627C49.1004 50.4014 49.1172 50.3317 49.1141 50.2615C49.111 50.1913 49.0882 50.1234 49.0482 50.0653L49.0495 50.0667L41.4249 38.468Z" fill="black"/>
</svg>
